<!DOCTYPE svg PUBLIC "-//W3C//DTD SVG 1.1//EN" "http://www.w3.org/Graphics/SVG/1.1/DTD/svg11.dtd">

<!-- Uploaded to: SVG Repo, www.svgrepo.com, Transformed by: SVG Repo Mixer Tools -->
<svg height="20px" width="20px" version="1.1" id="Layer_1" xmlns="http://www.w3.org/2000/svg" xmlns:xlink="http://www.w3.org/1999/xlink" viewBox="0 0 505 505" xml:space="preserve" fill="#000000">

<g id="SVGRepo_bgCarrier" stroke-width="0"/>

<g id="SVGRepo_tracerCarrier" stroke-linecap="round" stroke-linejoin="round"/>

<g id="SVGRepo_iconCarrier"> <path style="fill:#324A5E;" d="M379.9,430.1H125.1c-2.6,0-4.7-2.1-4.7-4.7V102.5c0-2.6,2.1-4.7,4.7-4.7H380c2.6,0,4.7,2.1,4.7,4.7 v323C384.6,428,382.5,430.1,379.9,430.1z"/> <polygon style="fill:#FFFFFF;" points="146.4,116.8 146.4,379.6 321.6,379.6 321.6,342.7 358.6,342.7 358.6,116.8 "/> <polygon style="fill:#E6E9EE;" points="321.6,379.6 358.6,342.7 321.6,342.7 "/> <path style="fill:#FF7058;" d="M273.3,87.2v-7.3c0-11.5-9.3-20.8-20.8-20.8c-11.5,0-20.8,9.3-20.8,20.8v7.3H195v42.6h115.1V87.2 H273.3z"/> <circle style="fill:#90DFAA;" cx="252.5" cy="79.9" r="10.4"/> <path style="fill:#E6E9EE;" d="M295.1,309.1H176.6V190.6h118.5V309.1z M188.3,297.5h95.2v-95.2h-95.2V297.5z"/> <polygon style="fill:#54C0EB;" points="243.9,285.4 200.3,241.8 220.9,221.2 243.9,244.2 307.8,180.4 328.4,201 "/> </g>

</svg>